<svg xmlns="http://www.w3.org/2000/svg" viewBox="0 0 800 600"><rect width="800" height="600" fill="#ede9df"/><rect x="170" y="120" width="460" height="360" rx="24" fill="#fffdf7" stroke="#84745b"/><g fill="#c9af78"><rect x="210" y="180" width="50" height="60" rx="8"/><rect x="300" y="180" width="50" height="60" rx="8"/><rect x="390" y="180" width="50" height="60" rx="8"/><rect x="480" y="180" width="50" height="60" rx="8"/><rect x="210" y="270" width="50" height="60" rx="8"/><rect x="300" y="270" width="50" height="60" rx="8"/><rect x="390" y="270" width="50" height="60" rx="8"/><rect x="480" y="270" width="50" height="60" rx="8"/><rect x="210" y="360" width="50" height="60" rx="8"/><rect x="300" y="360" width="50" height="60" rx="8"/><rect x="390" y="360" width="50" height="60" rx="8"/><rect x="480" y="360" width="50" height="60" rx="8"/></g></svg>