<svg xmlns="http://www.w3.org/2000/svg" viewBox="0 0 800 600"><rect width="800" height="600" fill="#ece9df"/><rect y="420" width="800" height="180" fill="#d2d8c8"/><rect x="170" y="130" width="460" height="330" rx="24" fill="#fffef9" stroke="#7b684b"/><g fill="#c7aa6e"><rect x="210" y="180" width="46" height="46" rx="8"/><rect x="300" y="180" width="46" height="46" rx="8"/><rect x="390" y="180" width="46" height="46" rx="8"/><rect x="480" y="180" width="46" height="46" rx="8"/><rect x="210" y="255" width="46" height="46" rx="8"/><rect x="300" y="255" width="46" height="46" rx="8"/><rect x="390" y="255" width="46" height="46" rx="8"/><rect x="480" y="255" width="46" height="46" rx="8"/><rect x="210" y="330" width="46" height="46" rx="8"/><rect x="300" y="330" width="46" height="46" rx="8"/><rect x="390" y="330" width="46" height="46" rx="8"/><rect x="480" y="330" width="46" height="46" rx="8"/></g><rect x="370" y="310" width="60" height="150" fill="#927146"/></svg>