<svg width="800" height="560" viewBox="0 0 800 560" fill="none" xmlns="http://www.w3.org/2000/svg">
<rect width="800" height="560" rx="28" fill="#F4FAFB"/>
<rect x="44" y="44" width="712" height="472" rx="20" fill="white"/>
<rect x="78" y="84" width="210" height="24" rx="12" fill="#15B1C1" fill-opacity="0.2"/>
<rect x="78" y="132" width="300" height="18" rx="9" fill="#243041" fill-opacity="0.16"/>
<rect x="78" y="166" width="248" height="18" rx="9" fill="#243041" fill-opacity="0.1"/>
<rect x="78" y="232" width="646" height="220" rx="20" fill="#F5F8FB"/>
<rect x="110" y="266" width="160" height="32" rx="16" fill="#FF5A7A" fill-opacity="0.2"/>
<rect x="298" y="266" width="190" height="32" rx="16" fill="#F6B400" fill-opacity="0.25"/>
<rect x="516" y="266" width="170" height="32" rx="16" fill="#0FA8B8" fill-opacity="0.2"/>
<path d="M130 380C205 315 265 315 337 380C408 444 477 445 572 338" stroke="#0FA8B8" stroke-width="10" stroke-linecap="round"/>
<circle cx="132" cy="379" r="12" fill="#FF5A7A"/>
<circle cx="337" cy="380" r="12" fill="#F6B400"/>
<circle cx="572" cy="338" r="12" fill="#0FA8B8"/>
</svg>
