<svg width="800" height="560" viewBox="0 0 800 560" fill="none" xmlns="http://www.w3.org/2000/svg">
<rect width="800" height="560" rx="28" fill="#F6FAFB"/>
<rect x="76" y="76" width="648" height="408" rx="24" fill="white"/>
<rect x="118" y="118" width="264" height="324" rx="22" fill="#F5F9FC"/>
<rect x="150" y="154" width="200" height="18" rx="9" fill="#243041" fill-opacity="0.14"/>
<rect x="150" y="194" width="164" height="18" rx="9" fill="#243041" fill-opacity="0.09"/>
<rect x="150" y="250" width="166" height="42" rx="21" fill="#0FA8B8"/>
<rect x="150" y="312" width="126" height="42" rx="21" fill="#FF5A7A" fill-opacity="0.85"/>
<rect x="420" y="138" width="262" height="304" rx="24" fill="#EAF6F8"/>
<rect x="452" y="174" width="198" height="22" rx="11" fill="#243041" fill-opacity="0.12"/>
<rect x="452" y="222" width="154" height="22" rx="11" fill="#243041" fill-opacity="0.08"/>
<rect x="452" y="286" width="172" height="88" rx="18" fill="white"/>
<circle cx="542" cy="330" r="26" fill="#F6B400"/>
<path d="M484 418H620" stroke="#0FA8B8" stroke-width="12" stroke-linecap="round"/>
</svg>
